<svg width="48" height="50" viewBox="0 0 48 50" fill="none" xmlns="http://www.w3.org/2000/svg">
<path d="M38.3837 33.1065H27.5102C26.8304 33.1065 26.1784 33.3759 25.6976 33.8554C25.2169 34.335 24.9468 34.9854 24.9468 35.6635C24.9468 36.3417 25.2169 36.9921 25.6976 37.4716C26.1784 37.9512 26.8304 38.2206 27.5102 38.2206H35.4454C34.9642 39.8687 34.0323 41.3505 32.7542 42.5C31.4761 43.6495 29.9023 44.4211 28.2092 44.7284C26.5161 45.0357 24.7707 44.8666 23.1686 44.2399C21.5665 43.6133 20.171 42.5539 19.1386 41.1805C18.1063 39.8071 17.4777 38.1741 17.3236 36.4644C17.1694 34.7547 17.4957 33.0359 18.2658 31.5008C19.0359 29.9657 20.2195 28.6749 21.6837 27.7731C23.148 26.8714 24.8352 26.3942 26.556 26.3952C27.2282 26.3834 27.8688 26.1088 28.3399 25.6304C28.811 25.1521 29.075 24.5084 29.075 23.8378C29.075 23.1672 28.811 22.5235 28.3399 22.0452C27.8688 21.5669 27.2282 21.2922 26.556 21.2804C24.5657 21.2804 22.5972 21.6928 20.7751 22.4917C18.953 23.2905 17.3172 24.4583 15.9713 25.9209C14.4234 24.4836 13.2824 22.6649 12.6634 20.6478C12.0443 18.6307 11.969 16.4865 12.445 14.4312C12.921 12.3758 13.9315 10.4819 15.3748 8.94004C16.8181 7.39821 18.6432 6.26296 20.6663 5.64861C22.6894 5.03427 24.839 4.96251 26.8988 5.44058C28.9585 5.91864 30.8556 6.92965 32.399 8.37178C33.9424 9.81391 35.0776 11.6362 35.6902 13.6553C36.3029 15.6743 36.3715 17.8187 35.889 19.8725C35.7404 20.5301 35.8583 21.2196 36.2169 21.791C36.5754 22.3623 37.1458 22.7692 37.8037 22.9232C38.4616 23.0771 39.1538 22.9656 39.7297 22.6129C40.3055 22.2602 40.7185 21.6949 40.8785 21.04C41.5779 18.0705 41.4693 14.9684 40.564 12.0548C39.6587 9.14107 37.9896 6.52149 35.7293 4.46689C33.469 2.4123 30.6995 0.997275 27.7072 0.368152C24.715 -0.260972 21.6085 -0.08136 18.7091 0.888416C15.8098 1.85819 13.2227 3.58292 11.2155 5.88427C9.20833 8.18561 7.85383 10.98 7.2921 13.9785C6.73038 16.977 6.98182 20.0708 8.02042 22.9399C9.05903 25.809 10.8471 28.3492 13.1997 30.298C12.4108 32.2605 12.0662 34.3725 12.1906 36.4833C12.315 38.594 12.9053 40.6512 13.9193 42.508C14.9333 44.3647 16.346 45.975 18.0564 47.2239C19.7668 48.4727 21.7327 49.3293 23.8135 49.7322C25.8943 50.1352 28.0386 50.0747 30.0932 49.5549C32.1478 49.0352 34.062 48.0692 35.6988 46.7258C37.3357 45.3825 38.6548 43.695 39.562 41.7841C40.4691 39.8731 40.9418 37.7859 40.9464 35.6715C40.947 35.3353 40.8812 35.0022 40.7528 34.6914C40.6244 34.3805 40.4359 34.0979 40.198 33.8598C39.9601 33.6216 39.6775 33.4325 39.3664 33.3032C39.0552 33.174 38.7216 33.1071 38.3845 33.1065" fill="#004D9E"/>
<path d="M33.0249 23.839C33.0251 25.1155 32.6457 26.3634 31.9349 27.4249C31.2241 28.4864 30.2136 29.3138 29.0314 29.8024C27.8492 30.2911 26.5482 30.419 25.293 30.1702C24.0379 29.9213 22.8849 29.3067 21.9799 28.4042C21.0749 27.5017 20.4585 26.3517 20.2087 25.0997C19.9589 23.8478 20.0869 22.55 20.5765 21.3706C21.066 20.1912 21.8952 19.1831 22.9592 18.4737C24.0231 17.7644 25.2741 17.3857 26.5538 17.3856C27.4035 17.3854 28.2449 17.5521 29.03 17.8763C29.8151 18.2006 30.5285 18.6759 31.1295 19.2752C31.7304 19.8744 32.2071 20.5859 32.5323 21.369C32.8575 22.1521 33.0249 22.9914 33.0249 23.839Z" fill="#F2A100"/>
</svg>
