<svg width="209" height="50" viewBox="0 0 209 50" fill="none" xmlns="http://www.w3.org/2000/svg">
<mask id="mask0_1428_917" style="mask-type:luminance" maskUnits="userSpaceOnUse" x="0" y="0" width="200" height="50">
<path d="M199.455 0H0V50H199.455V0Z" fill="white"/>
</mask>
<g mask="url(#mask0_1428_917)">
<path d="M67.6112 11.2858C62.8977 15.6095 58.7354 16.547 50.8131 16.5256H49.1057V21.0801L50.7995 21.0865C52.7518 21.0905 54.5572 21.0944 56.2582 21.0284V35.4657H61.3826V20.4952C63.5809 20.0904 65.6898 19.2998 67.6112 18.1602V11.2858Z" fill="#004D9E"/>
<path d="M180.603 11.2858C175.888 15.6095 171.723 16.547 163.801 16.5256H162.098V21.0801L163.79 21.0865C165.742 21.0905 167.548 21.0944 169.249 21.0284V35.4657H174.374V20.4952C176.573 20.0904 178.682 19.2996 180.603 18.1594V11.2858Z" fill="#004D9E"/>
<path d="M127.383 14.0754H118.529V18.9968H127.383V14.0754Z" fill="#004D9E"/>
<path d="M130.159 12.6912V20.9822C130.159 25.9832 126.409 31.3854 119.185 31.3854V35.3279C122.793 35.4221 126.359 34.5264 129.492 32.7383C132.313 31.0073 135.674 27.5255 135.674 20.7872V12.6912H130.159Z" fill="#004D9E"/>
<path d="M88.484 14.5933H80.5776V11.1712H75.4532V14.5933H71.417V19.7082H75.4532V35.4657H80.5776V19.7082H85.923V23.1462C85.8535 23.5275 85.6725 23.8798 85.4028 24.1588C85.133 24.4377 84.7866 24.6309 84.4071 24.714V28.8428C86.5158 28.8428 90.8559 26.6144 90.8559 22.2262V14.5933H88.484Z" fill="#004D9E"/>
<path d="M114.152 19.7049V14.5933H107.226V10.981H102.101V14.5925H94.7441V19.7041H102.101V35.4617H107.226V19.7041L114.152 19.7049Z" fill="#004D9E"/>
<path d="M95.6533 28.9486C95.6533 29.6211 95.1108 30.8586 94.364 31.0973V34.5919C95.9168 34.4619 97.3608 33.7444 98.4002 32.5863C99.4395 31.4282 99.9953 29.9174 99.9535 28.3636V22.8962H95.6533V28.9486Z" fill="#004D9E"/>
<path d="M113.65 28.9487V22.9003H109.349V28.3677C109.307 29.9215 109.863 31.4323 110.902 32.5904C111.942 33.7484 113.386 34.466 114.938 34.5959V31.0998C114.559 30.8793 114.242 30.5666 114.017 30.1909C113.791 29.8151 113.665 29.3886 113.649 28.951" fill="#004D9E"/>
<path d="M148.137 15.1768V10.9812H142.964V15.1768H139.361V20.2925H142.964V28.3479C142.964 29.2194 142.26 30.8246 141.289 31.1333V35.4643C144.104 35.4643 148.136 32.7147 148.136 27.3969V20.2925H152.884V29.5775C152.815 29.9592 152.634 30.312 152.365 30.5915C152.095 30.871 151.748 31.0648 151.369 31.1485V35.668C153.476 35.668 158.407 33.4397 158.407 29.0498V15.1768H148.137Z" fill="#004D9E"/>
<path d="M151.784 13.7371C152.17 13.7374 152.548 13.6234 152.87 13.4094C153.191 13.1955 153.442 12.8912 153.59 12.5351C153.739 12.179 153.778 11.787 153.703 11.4088C153.628 11.0305 153.442 10.6829 153.169 10.41C152.896 10.137 152.548 9.951 152.169 9.87537C151.79 9.79974 151.397 9.83791 151.039 9.98508C150.682 10.1322 150.376 10.3818 150.161 10.7021C149.946 11.0225 149.831 11.3993 149.831 11.7849C149.831 12.3019 150.036 12.7977 150.403 13.1637C150.769 13.5296 151.265 13.7358 151.784 13.7371Z" fill="#004D9E"/>
<path d="M156.641 13.7371C157.028 13.7371 157.405 13.6228 157.727 13.4087C158.048 13.1945 158.299 12.8901 158.447 12.534C158.595 12.1779 158.634 11.7859 158.558 11.4078C158.483 11.0296 158.297 10.6822 158.024 10.4094C157.751 10.1366 157.403 9.95075 157.024 9.87525C156.645 9.79975 156.252 9.83802 155.895 9.98523C155.538 10.1324 155.232 10.382 155.017 10.7023C154.802 11.0226 154.687 11.3994 154.687 11.7849C154.687 12.3027 154.893 12.7992 155.26 13.1653C155.627 13.5314 156.125 13.7371 156.644 13.7371" fill="#004D9E"/>
<path d="M189.734 10.981H184.219V35.4657H189.734V25.2615C192.57 25.8999 195.472 26.1938 198.378 26.1369V21.182C194.884 21.0714 192.186 20.6926 189.734 19.6445V10.981Z" fill="#004D9E"/>
<path d="M192.648 13.7371C193.034 13.7366 193.412 13.6219 193.733 13.4075C194.054 13.1931 194.304 12.8885 194.452 12.5323C194.599 12.1762 194.638 11.7843 194.562 11.4063C194.487 11.0283 194.301 10.6811 194.028 10.4086C193.754 10.136 193.406 9.95039 193.027 9.87508C192.648 9.79977 192.255 9.83818 191.898 9.98546C191.541 10.1327 191.236 10.3823 191.021 10.7026C190.806 11.0228 190.691 11.3995 190.691 11.7849C190.691 12.0413 190.741 12.2952 190.839 12.5321C190.938 12.769 191.082 12.9842 191.264 13.1655C191.445 13.3468 191.661 13.4906 191.899 13.5887C192.136 13.6868 192.391 13.7372 192.648 13.7371Z" fill="#004D9E"/>
<path d="M197.5 9.83658C197.113 9.83689 196.735 9.95157 196.414 10.1661C196.093 10.3807 195.842 10.6854 195.695 11.0419C195.547 11.3983 195.509 11.7904 195.585 12.1686C195.66 12.5468 195.847 12.8941 196.121 13.1665C196.394 13.4389 196.743 13.6243 197.122 13.6991C197.501 13.7739 197.894 13.7349 198.251 13.5869C198.608 13.4389 198.913 13.1886 199.128 12.8677C199.342 12.5468 199.456 12.1697 199.456 11.784C199.455 11.267 199.249 10.7714 198.882 10.4063C198.515 10.0411 198.018 9.83616 197.5 9.83658Z" fill="#004D9E"/>
<path d="M31.3837 33.1124H20.5102C19.8304 33.1124 19.1784 33.3818 18.6976 33.8613C18.2169 34.3409 17.9468 34.9913 17.9468 35.6694C17.9468 36.3476 18.2169 36.998 18.6976 37.4775C19.1784 37.957 19.8304 38.2264 20.5102 38.2264H28.4454C27.9642 39.8746 27.0323 41.3564 25.7542 42.5059C24.4761 43.6553 22.9023 44.427 21.2092 44.7343C19.5161 45.0416 17.7707 44.8725 16.1686 44.2458C14.5665 43.6192 13.171 42.5598 12.1386 41.1864C11.1063 39.813 10.4777 38.18 10.3236 36.4703C10.1694 34.7606 10.4957 33.0418 11.2658 31.5067C12.0359 29.9716 13.2195 28.6808 14.6837 27.779C16.148 26.8772 17.8352 26.4001 19.556 26.4011C20.2282 26.3893 20.8688 26.1146 21.3399 25.6363C21.811 25.158 22.075 24.5143 22.075 23.8437C22.075 23.1731 21.811 22.5294 21.3399 22.0511C20.8688 21.5727 20.2282 21.2981 19.556 21.2863C17.5657 21.2863 15.5972 21.6987 13.7751 22.4976C11.953 23.2964 10.3172 24.4642 8.97135 25.9268C7.4234 24.4895 6.28244 22.6708 5.66337 20.6537C5.0443 18.6366 4.96897 16.4924 5.44498 14.4371C5.92099 12.3817 6.93152 10.4878 8.37481 8.94593C9.8181 7.4041 11.6432 6.26885 13.6663 5.6545C15.6894 5.04016 17.839 4.9684 19.8988 5.44647C21.9585 5.92453 23.8556 6.93554 25.399 8.37767C26.9424 9.8198 28.0776 11.6421 28.6902 13.6612C29.3029 15.6802 29.3715 17.8246 28.889 19.8784C28.7404 20.536 28.8583 21.2255 29.2169 21.7969C29.5754 22.3682 30.1458 22.7751 30.8037 22.929C31.4616 23.083 32.1538 22.9715 32.7297 22.6188C33.3055 22.2661 33.7185 21.7008 33.8785 21.0459C34.5779 18.0764 34.4693 14.9743 33.564 12.0606C32.6587 9.14696 30.9896 6.52738 28.7293 4.47278C26.469 2.41819 23.6995 1.00317 20.7072 0.374041C17.715 -0.255082 14.6085 -0.0754701 11.7091 0.894306C8.80978 1.86408 6.22274 3.58881 4.21553 5.89016C2.20833 8.1915 0.853829 10.9859 0.292105 13.9844C-0.26962 16.9829 -0.0181797 20.0767 1.02042 22.9458C2.05903 25.8149 3.84709 28.3551 6.19972 30.3039C5.41077 32.2663 5.06618 34.3784 5.19057 36.4891C5.31497 38.5999 5.90528 40.6571 6.9193 42.5138C7.93333 44.3706 9.34603 45.9809 11.0564 47.2298C12.7668 48.4786 14.7327 49.3351 16.8135 49.7381C18.8943 50.1411 21.0386 50.0806 23.0932 49.5608C25.1478 49.0411 27.062 48.0751 28.6988 46.7317C30.3357 45.3884 31.6548 43.7009 32.562 41.79C33.4691 39.879 33.9418 37.7917 33.9464 35.6774C33.947 35.3412 33.8812 35.0081 33.7528 34.6973C33.6244 34.3864 33.4359 34.1038 33.198 33.8656C32.9601 33.6275 32.6775 33.4384 32.3664 33.3091C32.0552 33.1799 31.7216 33.113 31.3845 33.1124" fill="#004D9E"/>
<path d="M26.0249 23.8449C26.0251 25.1214 25.6457 26.3693 24.9349 27.4308C24.2241 28.4923 23.2136 29.3197 22.0314 29.8083C20.8492 30.297 19.5482 30.4249 18.293 30.1761C17.0379 29.9272 15.8849 29.3126 14.9799 28.4101C14.0749 27.5075 13.4585 26.3576 13.2087 25.1056C12.9589 23.8537 13.0869 22.5559 13.5764 21.3765C14.066 20.1971 14.8952 19.189 15.9592 18.4796C17.0231 17.7703 18.2741 17.3916 19.5538 17.3914C20.4035 17.3912 21.2449 17.558 22.03 17.8822C22.8151 18.2065 23.5285 18.6818 24.1295 19.2811C24.7304 19.8803 25.2071 20.5918 25.5323 21.3749C25.8575 22.158 26.0249 22.9973 26.0249 23.8449Z" fill="#F2A100"/>
</g>
<path d="M204.904 2.91435C204.198 2.92064 203.511 3.13505 202.927 3.53056C202.344 3.92608 201.891 4.48499 201.625 5.1369C201.36 5.78882 201.293 6.50455 201.435 7.19392C201.576 7.88328 201.919 8.51543 202.421 9.01073C202.922 9.50603 203.558 9.84232 204.251 9.97721C204.943 10.1121 205.66 10.0396 206.311 9.76873C206.962 9.4979 207.518 9.04092 207.909 8.45533C208.301 7.86975 208.509 7.18178 208.509 6.4781C208.503 5.5291 208.12 4.62113 207.445 3.95313C206.769 3.28514 205.855 2.9116 204.904 2.91435ZM204.904 9.49433C204.307 9.48821 203.726 9.30621 203.233 8.97124C202.74 8.63627 202.358 8.16329 202.133 7.61187C201.909 7.06045 201.854 6.45524 201.974 5.87241C202.094 5.28958 202.384 4.75518 202.808 4.3365C203.232 3.91782 203.77 3.63357 204.356 3.51954C204.941 3.4055 205.547 3.46677 206.098 3.69564C206.648 3.92451 207.119 4.31075 207.45 4.80573C207.781 5.30071 207.958 5.88231 207.958 6.4773C207.956 7.03421 207.796 7.5792 207.497 8.04989C207.365 8.02893 207.235 7.99315 207.11 7.94324C206.876 7.82342 206.665 7.66369 206.487 7.4713L205.412 6.43672C205.755 6.40476 206.085 6.28616 206.37 6.09211C206.462 6.02648 206.537 5.94028 206.59 5.84038C206.643 5.74047 206.671 5.62964 206.673 5.51673C206.673 5.41315 206.649 5.31107 206.602 5.21853C206.555 5.126 206.488 5.04556 206.405 4.98353C206.212 4.82985 205.986 4.72499 205.744 4.67793C205.347 4.61265 204.945 4.58599 204.543 4.59834H202.67V4.69782H202.862C203.017 4.68749 203.171 4.72831 203.3 4.81401C203.37 4.86494 203.406 5.0066 203.406 5.22944V7.56364C203.423 7.69682 203.395 7.832 203.326 7.94723C203.263 8.00309 203.189 8.04526 203.109 8.07102C203.028 8.09678 202.944 8.10556 202.86 8.09683H202.668V8.19869H204.867V8.09683H204.665C204.512 8.10724 204.361 8.06692 204.235 7.98222C204.166 7.9289 204.13 7.78886 204.13 7.56364V6.51233H204.245H204.346C204.426 6.51233 204.532 6.51233 204.66 6.51233L206.415 8.19869H207.409C207.127 8.6002 206.752 8.92796 206.316 9.15419C205.88 9.38042 205.395 9.49847 204.904 9.49831M204.345 6.35157L204.257 6.34679H204.136V4.86336C204.33 4.8195 204.527 4.79418 204.726 4.78775C205.006 4.77531 205.282 4.84953 205.518 5.00024C205.615 5.06282 205.693 5.14994 205.744 5.25266C205.796 5.35537 205.819 5.46995 205.812 5.58459C205.804 5.69923 205.766 5.80977 205.701 5.90486C205.637 5.99994 205.548 6.07613 205.444 6.12555C205.105 6.29648 204.726 6.37421 204.346 6.35077" fill="#004D9E"/>
</svg>
